<svg width="100" height="100" version="1.1" viewBox="0 0 26.458 26.458" xmlns="http://www.w3.org/2000/svg">
 <g fill="#ffffff" stroke="#ffffff" stroke-linecap="round" stroke-width=".3">
  <path d="m10.813 18.548c-0.35617 0.11095-0.14564 0.58998-0.20257 0.87583 0.01028 0.48528-0.02076 0.97467 0.01586 1.4573 0.21919 0.2371 0.60875 0.07634 0.90486 0.12353h2.8258c-0.05537-0.30204-0.09712-0.61075-0.07338-0.93127v-1.5254h-3.4706z"/>
  <path d="m15.193 15.235c-0.44809 0.08695-0.23653 0.63372-0.28577 0.95902v4.5089c0.08728 0.44757 0.63383 0.23594 0.95902 0.28525h4.836c0.44765-0.08685 0.2359-0.63348 0.28525-0.95851v-4.5089c-0.08652-0.44816-0.63337-0.23649-0.95851-0.28577h-4.836zm0.56741 0.59324c1.4869 0.0118 2.9784-0.0236 4.4623 0.0177 0.25792 0.21902 0.09046 0.62233 0.13842 0.92678-0.01179 1.1608 0.02362 2.3264-0.01778 3.4843-0.21938 0.25783-0.62259 0.09051-0.92722 0.13842-1.2474-0.01185-2.4996 0.0237-3.7441-0.01778-0.25714-0.21976-0.09015-0.6226-0.13798-0.92722 0.01173-1.1608-0.02351-2.3263 0.0177-3.4842 0.03349-0.08241 0.11959-0.13946 0.20864-0.13798z"/>
  <path d="m5.6177 5.386h9.9891c0.35637 0.11098 0.14585 0.59007 0.20276 0.87601-0.0103 0.48529 0.0208 0.97471-0.01588 1.4574-0.21917 0.23733-0.60884 0.076486-0.90501 0.12369h-9.2709c-0.35638-0.11098-0.14586-0.59007-0.20276-0.87601 0.010298-0.48529-0.020796-0.97471 0.015885-1.4574 0.030072-0.073761 0.10708-0.12497 0.18687-0.12369z"/>
  <path d="m10.813 9.7732h9.9891c0.35637 0.11098 0.14585 0.59006 0.20276 0.87601-0.0103 0.4853 0.0208 0.97471-0.01589 1.4574-0.21917 0.23733-0.60884 0.07648-0.90501 0.12369h-9.2709c-0.35637-0.11098-0.14585-0.59006-0.20276-0.87601 0.0103-0.4853-0.0208-0.97471 0.01589-1.4574 0.03007-0.073761 0.10708-0.12497 0.18688-0.12369z"/>
  <path d="m5.6177 14.16c-0.35682 0.11055-0.14617 0.5899-0.20309 0.87583 0.010332 0.48531-0.020862 0.97475 0.015936 1.4574 0.21915 0.23774 0.609 0.07674 0.90529 0.12397h7.9475c0.01599-0.59386-0.03233-1.1941 0.0247-1.7839 0.23585-0.33075 0.70254-0.14135 1.053-0.19167 0.34447 0.08741 0.60141-0.07206 0.38911-0.42246-0.39444-0.12791-0.84703-0.02699-1.2655-0.05916h-8.867z"/>
 </g>
</svg>
