<svg width="100" height="100" version="1.1" viewBox="0 0 26.458 26.458" xmlns="http://www.w3.org/2000/svg">
 <g fill="#ffffff" stroke="#ffffff">
  <path d="m12.134 5.9195c-0.41617 0.025699-0.04213 0.63478-0.29272 0.6935-1.2357 0.017674-2.4751-0.038708-3.7081 0.034897-1.5453 0.19695-2.716 1.7184-2.5755 3.2581 0.01003 2.3146-0.020317 4.6304 0.015634 6.9441 0.11974 1.5909 1.6533 2.8619 3.2351 2.728 3.1591-0.0026 6.3184 0.0052 9.4774-0.0039 1.652-0.03681 3.0254-1.6086 2.8827-3.2468-0.01004-2.3286 0.02032-4.6585-0.01563-6.9864-0.11974-1.5909-1.6533-2.8619-3.2351-2.728h-3.2331v1.2986c1.0415 0.015116 2.0862-0.032375 3.1255 0.02791 1.2579 0.15903 2.1891 1.4095 2.0597 2.6564-8e-3 1.8339 0.01626 3.6687-0.0125 5.5019-0.09648 1.3093-1.3808 2.3194-2.6718 2.1816-2.7158-0.0082-5.4326 0.01651-8.1478-0.0125-1.3093-0.09648-2.3194-1.3808-2.1816-2.6718 0.00803-1.8339-0.016256-3.6687 0.012504-5.5019 0.096476-1.3093 1.3808-2.3194 2.6718-2.1816h2.3852c-0.07882 0.31941 0.06587 0.80227 0.48916 0.55754 0.69047-0.38497 1.4-0.74279 2.0785-1.1447 0.11971-0.30287-0.38026-0.34627-0.55653-0.50569-0.55582-0.29124-1.0967-0.61861-1.6617-0.88765z" stroke-linecap="round" stroke-width=".3"/>
  <g transform="matrix(.095237 0 0 .095237 11.136 8.6187)" stroke-width=".3">
   <path d="m37.992 0h-8.021v65.358c-11.852-4.256-28.117 2.9459-29.954 16.103-0.51124 9.7543 10.971 14.05 19.108 12.207 9.8874-1.4232 20.159-9.7217 18.854-20.539 0.004434-16.929 0.008868-33.858 0.013302-50.787 11.202 1.5973 15.618 15.082 13.268 24.842 0.87533 5.4442 6.0576-5.7279 6.2459-8.2138 2.8372-11.5-6.8939-20.407-13.883-28.043-2.6456-3.1066-5.5729-6.627-5.6312-10.927z" fill="#ffffff" stroke="#ffffff" stroke-width=".3"/>
  </g>
 </g>
</svg>
